<?xml version="1.0" encoding="UTF-8" standalone="no"?>
<!DOCTYPE svg PUBLIC "-//W3C//DTD SVG 1.1//EN"
 "http://www.w3.org/Graphics/SVG/1.1/DTD/svg11.dtd">
<!-- Generated by graphviz version 2.40.1 (20161225.0304)
 -->
<!-- Title: G Pages: 1 -->
<svg width="552pt" height="207pt"
 viewBox="0.00 0.00 551.88 207.28" xmlns="http://www.w3.org/2000/svg" xmlns:xlink="http://www.w3.org/1999/xlink">
<g id="graph0" class="graph" transform="scale(1 1) rotate(0) translate(4 203.2792)">
<title>G</title>
<polygon fill="#ffffff" stroke="transparent" points="-4,4 -4,-203.2792 547.8767,-203.2792 547.8767,4 -4,4"/>
<!-- pyeo_filesystem_utilities -->
<g id="node1" class="node">
<title>pyeo_filesystem_utilities</title>
<ellipse fill="#e61919" stroke="#000000" cx="141.6096" cy="-178.066" rx="69.0935" ry="21.4286"/>
<text text-anchor="middle" x="141.6096" y="-181.066" font-family="Helvetica,sans-Serif" font-size="10.00" fill="#ffffff">pyeo.</text>
<text text-anchor="middle" x="141.6096" y="-170.066" font-family="Helvetica,sans-Serif" font-size="10.00" fill="#ffffff">filesystem_utilities</text>
</g>
<!-- pyeo_queries_and_downloads -->
<g id="node2" class="node">
<title>pyeo_queries_and_downloads</title>
<ellipse fill="#ac4949" stroke="#000000" cx="103.6096" cy="-99.6396" rx="85.6199" ry="21.4286"/>
<text text-anchor="middle" x="103.6096" y="-102.6396" font-family="Helvetica,sans-Serif" font-size="10.00" fill="#ffffff">pyeo.</text>
<text text-anchor="middle" x="103.6096" y="-91.6396" font-family="Helvetica,sans-Serif" font-size="10.00" fill="#ffffff">queries_and_downloads</text>
</g>
<!-- pyeo_filesystem_utilities&#45;&gt;pyeo_queries_and_downloads -->
<g id="edge1" class="edge">
<title>pyeo_filesystem_utilities&#45;&gt;pyeo_queries_and_downloads</title>
<path fill="none" stroke="#000000" d="M131.4263,-157.0492C127.3798,-148.6978 122.6477,-138.9315 118.246,-129.8469"/>
<polygon fill="#000000" stroke="#000000" points="121.3313,-128.1876 113.821,-120.7145 115.0318,-131.2399 121.3313,-128.1876"/>
</g>
<!-- pyeo_raster_manipulation -->
<g id="node3" class="node">
<title>pyeo_raster_manipulation</title>
<ellipse fill="#a13535" stroke="#000000" cx="378.6096" cy="-99.6396" rx="71.3357" ry="21.4286"/>
<text text-anchor="middle" x="378.6096" y="-102.6396" font-family="Helvetica,sans-Serif" font-size="10.00" fill="#ffffff">pyeo.</text>
<text text-anchor="middle" x="378.6096" y="-91.6396" font-family="Helvetica,sans-Serif" font-size="10.00" fill="#ffffff">raster_manipulation</text>
</g>
<!-- pyeo_filesystem_utilities&#45;&gt;pyeo_raster_manipulation -->
<g id="edge6" class="edge">
<title>pyeo_filesystem_utilities&#45;&gt;pyeo_raster_manipulation</title>
<path fill="none" stroke="#000000" d="M188.7166,-162.4777C226.8336,-149.8643 280.6627,-132.0515 321.2808,-118.6105"/>
<polygon fill="#000000" stroke="#000000" points="322.3859,-121.9315 330.7801,-115.467 320.1868,-115.2859 322.3859,-121.9315"/>
</g>
<!-- pyeo_classification -->
<g id="node4" class="node">
<title>pyeo_classification</title>
<ellipse fill="#a83838" stroke="#000000" cx="378.6096" cy="-21.2132" rx="52.1524" ry="21.4286"/>
<text text-anchor="middle" x="378.6096" y="-24.2132" font-family="Helvetica,sans-Serif" font-size="10.00" fill="#ffffff">pyeo.</text>
<text text-anchor="middle" x="378.6096" y="-13.2132" font-family="Helvetica,sans-Serif" font-size="10.00" fill="#ffffff">classification</text>
</g>
<!-- pyeo_filesystem_utilities&#45;&gt;pyeo_classification -->
<g id="edge3" class="edge">
<title>pyeo_filesystem_utilities&#45;&gt;pyeo_classification</title>
<path fill="none" stroke="#000000" d="M81.2074,-167.6081C54.2026,-159.5972 24.8516,-145.5208 8.6096,-120.8528 -1.7599,-105.1039 -3.6627,-92.7423 8.6096,-78.4264 28.4204,-55.3168 217.3358,-35.3945 317.2793,-26.3679"/>
<polygon fill="#000000" stroke="#000000" points="317.6025,-29.853 327.2513,-25.4767 316.9794,-22.8808 317.6025,-29.853"/>
</g>
<!-- pyeo_validation -->
<g id="node7" class="node">
<title>pyeo_validation</title>
<ellipse fill="#a44646" stroke="#000000" cx="248.6096" cy="-99.6396" rx="41.0244" ry="21.4286"/>
<text text-anchor="middle" x="248.6096" y="-102.6396" font-family="Helvetica,sans-Serif" font-size="10.00" fill="#ffffff">pyeo.</text>
<text text-anchor="middle" x="248.6096" y="-91.6396" font-family="Helvetica,sans-Serif" font-size="10.00" fill="#ffffff">validation</text>
</g>
<!-- pyeo_filesystem_utilities&#45;&gt;pyeo_validation -->
<g id="edge9" class="edge">
<title>pyeo_filesystem_utilities&#45;&gt;pyeo_validation</title>
<path fill="none" stroke="#000000" d="M168.3342,-158.478C182.958,-147.7594 201.178,-134.405 216.5617,-123.1293"/>
<polygon fill="#000000" stroke="#000000" points="218.7792,-125.8435 224.7756,-117.1089 214.641,-120.1977 218.7792,-125.8435"/>
</g>
<!-- pyeo_raster_manipulation&#45;&gt;pyeo_classification -->
<g id="edge2" class="edge">
<title>pyeo_raster_manipulation&#45;&gt;pyeo_classification</title>
<path fill="none" stroke="#000000" d="M378.6096,-68.1279C378.6096,-63.0409 378.6096,-57.774 378.6096,-52.6879"/>
<polygon fill="#000000" stroke="#000000" points="375.1097,-68.2092 378.6096,-78.2092 382.1097,-68.2093 375.1097,-68.2092"/>
<polygon fill="#000000" stroke="#000000" points="382.1097,-52.6176 378.6096,-42.6177 375.1097,-52.6177 382.1097,-52.6176"/>
</g>
<!-- pyeo_coordinate_manipulation -->
<g id="node5" class="node">
<title>pyeo_coordinate_manipulation</title>
<ellipse fill="#db2f2f" stroke="#000000" cx="457.6096" cy="-178.066" rx="86.0347" ry="21.4286"/>
<text text-anchor="middle" x="457.6096" y="-181.066" font-family="Helvetica,sans-Serif" font-size="10.00" fill="#ffffff">pyeo.</text>
<text text-anchor="middle" x="457.6096" y="-170.066" font-family="Helvetica,sans-Serif" font-size="10.00" fill="#ffffff">coordinate_manipulation</text>
</g>
<!-- pyeo_coordinate_manipulation&#45;&gt;pyeo_raster_manipulation -->
<g id="edge7" class="edge">
<title>pyeo_coordinate_manipulation&#45;&gt;pyeo_raster_manipulation</title>
<path fill="none" stroke="#000000" d="M436.8533,-157.4604C427.6002,-148.2745 416.5606,-137.3151 406.5932,-127.42"/>
<polygon fill="#000000" stroke="#000000" points="408.79,-124.669 399.2273,-120.1076 403.8583,-129.6368 408.79,-124.669"/>
</g>
<!-- pyeo_coordinate_manipulation&#45;&gt;pyeo_classification -->
<g id="edge4" class="edge">
<title>pyeo_coordinate_manipulation&#45;&gt;pyeo_classification</title>
<path fill="none" stroke="#000000" d="M463.3495,-156.5266C467.7565,-135.4001 471.1888,-102.8876 458.6096,-78.4264 450.8496,-63.3363 437.0592,-51.3404 423.0897,-42.3104"/>
<polygon fill="#000000" stroke="#000000" points="424.7894,-39.248 414.4208,-37.07 421.168,-45.2386 424.7894,-39.248"/>
</g>
<!-- pyeo_coordinate_manipulation&#45;&gt;pyeo_validation -->
<g id="edge10" class="edge">
<title>pyeo_coordinate_manipulation&#45;&gt;pyeo_validation</title>
<path fill="none" stroke="#000000" d="M407.2142,-160.7408C375.8133,-149.7461 334.6669,-134.9763 298.6096,-120.8528 295.7177,-119.7201 292.7423,-118.5276 289.7527,-117.3096"/>
<polygon fill="#000000" stroke="#000000" points="290.8191,-113.9632 280.2407,-113.3741 288.1429,-120.4314 290.8191,-113.9632"/>
</g>
<!-- pyeo_array_utilities -->
<g id="node6" class="node">
<title>pyeo_array_utilities</title>
<ellipse fill="#c24747" stroke="#000000" cx="300.6096" cy="-178.066" rx="52.1524" ry="21.4286"/>
<text text-anchor="middle" x="300.6096" y="-181.066" font-family="Helvetica,sans-Serif" font-size="10.00" fill="#ffffff">pyeo.</text>
<text text-anchor="middle" x="300.6096" y="-170.066" font-family="Helvetica,sans-Serif" font-size="10.00" fill="#ffffff">array_utilities</text>
</g>
<!-- pyeo_array_utilities&#45;&gt;pyeo_raster_manipulation -->
<g id="edge5" class="edge">
<title>pyeo_array_utilities&#45;&gt;pyeo_raster_manipulation</title>
<path fill="none" stroke="#000000" d="M320.2923,-158.2757C329.5892,-148.928 340.8455,-137.6102 350.9794,-127.4209"/>
<polygon fill="#000000" stroke="#000000" points="353.5459,-129.8037 358.116,-120.2452 348.5826,-124.8674 353.5459,-129.8037"/>
</g>
</g>
</svg>
